<svg width="35" height="35" viewBox="0 0 35 35" fill="none" xmlns="http://www.w3.org/2000/svg">
<path d="M14.2188 9.71252V11.561H34.9809C34.9519 10.9649 34.8895 10.2113 34.6664 9.71252" fill="#EC1C24"/>
<path d="M33.6875 7.86401H14.2188V9.71245H34.6664C34.4444 9.02284 34.1141 8.39394 33.6875 7.86401Z" fill="#E6E7E8"/>
<path d="M29.5312 6.01562H14.2188V7.86406H33.6875C32.7748 6.72109 31.2725 6.01562 29.5312 6.01562Z" fill="#EC1C24"/>
<path d="M34.9809 11.5609H14.2188V13.4094H35V12.1772C35 12.0673 34.9929 11.9601 34.9896 11.8524C34.9874 11.8229 34.9841 11.7469 34.9809 11.5609Z" fill="#E6E7E8"/>
<path d="M14.2188 15.2579H35V13.4094H14.2188V15.2579Z" fill="#EC1C24"/>
<path d="M14.2188 17.1063H35V15.2578H14.2188V17.1063Z" fill="#E6E7E8"/>
<path d="M14.2188 17.1062H35V18.9546H14.2188V17.1062Z" fill="#EC1C24"/>
<path d="M0 18.9547V20.8031H35V18.9547H14.2188H0Z" fill="#E6E7E8"/>
<path d="M0 20.8031H35V22.6515H0V20.8031Z" fill="#EC1C24"/>
<path d="M0.00273437 23.7886C0.00273437 23.7886 -0.0021875 24.2365 0.0109375 24.5H34.9891C35.0044 24.2299 34.9973 23.7886 34.9973 23.7886L35 22.6516H0L0.00273437 23.7886Z" fill="#E6E7E8"/>
<path d="M5.46895 30.0781H29.5314C31.2776 30.0781 32.729 29.4438 33.7205 28.1969H1.27441C2.29816 29.4711 3.77691 30.0781 5.46621 30.0781" fill="#EC1C24"/>
<path d="M1.27715 28.1968H33.7232C34.1557 27.6472 34.4787 27.0197 34.6748 26.3484H0.331055C0.531149 27.0176 0.852791 27.6442 1.27988 28.1968" fill="#E6E7E8"/>
<path d="M0.32793 26.3484H34.6717C34.8507 25.7471 34.9571 25.1266 34.9889 24.5H0.0107422C0.0648828 25.1322 0.115195 25.6096 0.32793 26.3484Z" fill="#EC1C24"/>
<path d="M14.2188 6.01562H5.46875C1.84461 6.01562 0 8.70898 0 12.0312V18.9547H14.2188V6.01562Z" fill="#176496"/>
<path d="M1.53031 9.28379L1.82781 9.0552L2.12477 9.28379L2.00937 8.91629L2.30523 8.69153H1.93992L1.82672 8.32239L1.71406 8.69153H1.3493L1.64625 8.91629L1.53031 9.28379ZM3.49578 9.28379L3.79328 9.0552L4.09023 9.28379L3.97539 8.91629L4.2707 8.69153H3.90594L3.79273 8.32239L3.68008 8.69153H3.31422L3.61117 8.91629L3.49578 9.28379ZM5.66414 9.28379L5.96109 9.0552L6.25859 9.28379L6.1432 8.91629L6.43852 8.69153H6.07594L5.96109 8.32239L5.84789 8.69153H5.48531L5.77898 8.91629L5.66414 9.28379ZM7.81664 9.28379L8.11359 9.0552L8.41109 9.28379L8.29625 8.91629L8.59156 8.69153H8.22516L8.11359 8.32239L8.00094 8.69153H7.63563L7.93203 8.91629L7.81664 9.28379ZM9.9768 9.28379L10.2743 9.0552L10.5712 9.28379L10.4564 8.91629L10.7523 8.69153H10.3864L10.2738 8.32239L10.1611 8.69153H9.79633L10.0916 8.91629L9.9768 9.28379ZM2.57648 10.2436L2.87344 10.0155L3.17039 10.2436L3.05609 9.87661L3.35141 9.65184H2.98609L2.87289 9.28325L2.76188 9.65184H2.39547L2.69133 9.87661L2.57648 10.2436ZM4.5425 10.2436L4.83945 10.0155L5.13641 10.2436L5.02156 9.87661L5.31687 9.65184H4.94938L4.83945 9.28325L4.72625 9.65184H4.36148L4.65734 9.87661L4.5425 10.2436ZM6.71086 10.2436L7.00727 10.0155L7.30422 10.2436L7.18938 9.87661L7.48523 9.65184H7.12047L7.00727 9.28325L6.89406 9.65184H6.52875L6.82461 9.87661L6.71086 10.2436ZM8.86227 10.2436L9.15977 10.0155L9.45727 10.2436L9.34078 9.87661L9.63719 9.65184H9.27242L9.15922 9.28325L9.04711 9.65184H8.6818L8.97766 9.87661L8.86227 10.2436ZM11.0252 10.2436L11.3199 10.0155L11.6169 10.2436L11.5009 9.87661L11.7973 9.65184H11.4331L11.3194 9.28325L11.2073 9.65184H10.842L11.1378 9.87661L11.0252 10.2436ZM12.243 9.28379L12.54 9.0552L12.8375 9.28379L12.7221 8.91629L13.0174 8.69153H12.6548L12.5395 8.32239L12.4268 8.69153H12.0588L12.3579 8.91629L12.243 9.28379ZM1.50133 16.9641L1.79883 16.7382L2.09578 16.9641L1.98094 16.5999L2.27625 16.3746L1.91148 16.3757L1.79773 16.0071L1.68617 16.3757L1.32031 16.3746L1.61617 16.5999L1.50133 16.9641ZM3.46734 16.9641L3.7643 16.7382L4.0618 16.9641L3.94641 16.5999L4.24172 16.3746L3.8775 16.3757L3.76375 16.0071L3.65164 16.3757L3.28688 16.3746L3.58219 16.5999L3.46734 16.9641ZM5.6357 16.9641L5.93266 16.7382L6.23016 16.9641L6.11477 16.5999L6.41008 16.3746L6.04312 16.3757L5.93211 16.0071L5.81945 16.3757L5.45469 16.3746L5.75055 16.5999L5.6357 16.9641ZM7.7882 16.9641L8.08516 16.7382L8.38211 16.9641L8.26891 16.5999L8.56258 16.3746L8.19727 16.3757L8.08461 16.0071L7.97195 16.3757L7.60719 16.3746L7.9025 16.5999L7.7882 16.9641ZM9.94781 16.9641L10.2453 16.7382L10.5428 16.9641L10.4291 16.5999L10.7227 16.3746L10.358 16.3757L10.2448 16.0071L10.1327 16.3757L9.76734 16.3746L10.0627 16.5999L9.94781 16.9641ZM12.2141 16.9641L12.511 16.7382L12.8085 16.9641L12.6931 16.5999L12.989 16.3746L12.622 16.3757L12.5105 16.0071L12.3978 16.3757L12.0314 16.3746L12.3289 16.5999L12.2141 16.9641ZM1.53031 11.2044L1.82781 10.9758L2.12477 11.2044L2.00937 10.8369L2.30523 10.6122L1.93992 10.6132L1.82672 10.2436L1.71406 10.6132L1.3493 10.6122L1.64625 10.8369L1.53031 11.2044ZM3.49578 11.2044L3.79328 10.9758L4.09023 11.2044L3.97539 10.8369L4.2707 10.6122L3.90594 10.6132L3.79273 10.2436L3.68008 10.6132L3.31422 10.6122L3.61117 10.8369L3.49578 11.2044ZM5.66414 11.2044L5.96109 10.9758L6.25859 11.2044L6.1432 10.8369L6.43852 10.6122L6.07594 10.6132L5.96109 10.2436L5.84789 10.6132L5.48531 10.6122L5.77898 10.8369L5.66414 11.2044ZM7.81664 11.2044L8.11359 10.9758L8.41109 11.2044L8.29625 10.8369L8.59156 10.6122L8.22516 10.6132L8.11359 10.2436L8.00094 10.6132L7.63563 10.6122L7.93203 10.8369L7.81664 11.2044ZM9.9768 11.2044L10.2743 10.9758L10.5712 11.2044L10.4564 10.8369L10.7523 10.6122L10.3864 10.6132L10.2738 10.2436L10.1611 10.6132L9.79633 10.6122L10.0916 10.8369L9.9768 11.2044ZM2.57648 12.1647L2.87344 11.9367L3.17039 12.1647L3.05609 11.7978L3.35141 11.5719H2.98609L2.87289 11.2044L2.76188 11.5719H2.39547L2.69133 11.7978L2.57648 12.1647ZM4.5425 12.1647L4.83945 11.9367L5.13641 12.1647L5.02156 11.7978L5.31687 11.5719H4.94938L4.83945 11.2044L4.72625 11.5719H4.36148L4.65734 11.7978L4.5425 12.1647ZM6.71086 12.1647L7.00727 11.9367L7.30422 12.1647L7.18938 11.7978L7.48523 11.5719H7.12047L7.00727 11.2044L6.89406 11.5719H6.52875L6.82461 11.7978L6.71086 12.1647ZM8.86227 12.1647L9.15977 11.9367L9.45727 12.1647L9.34078 11.7978L9.63719 11.5719H9.27242L9.15922 11.2044L9.04711 11.5719H8.6818L8.97766 11.7978L8.86227 12.1647ZM11.0252 12.1647L11.3199 11.9367L11.6169 12.1647L11.5009 11.7978L11.7973 11.5719H11.4331L11.3194 11.2044L11.2073 11.5719H10.842L11.1378 11.7978L11.0252 12.1647ZM12.243 11.2044L12.54 10.9758L12.8375 11.2044L12.7221 10.8369L13.0174 10.6122L12.6548 10.6132L12.5395 10.2436L12.4268 10.6132L12.0588 10.6122L12.3579 10.8369L12.243 11.2044ZM1.50133 13.125L1.79883 12.897L2.09578 13.125L1.98039 12.7586L2.27625 12.5333L1.91094 12.5344L1.79773 12.1647L1.68617 12.5344L1.32031 12.5333L1.61617 12.7586L1.50133 13.125ZM3.46734 13.125L3.7643 12.897L4.0618 13.125L3.94641 12.7586L4.24172 12.5333L3.8775 12.5344L3.76375 12.1647L3.65164 12.5344L3.28688 12.5333L3.58164 12.7586L3.46734 13.125ZM5.6357 13.125L5.93266 12.897L6.22961 13.125L6.11477 12.7586L6.41008 12.5333L6.04312 12.5344L5.93211 12.1647L5.81945 12.5344L5.45469 12.5333L5.75055 12.7586L5.6357 13.125ZM7.7882 13.125L8.08461 12.897L8.38211 13.125L8.26891 12.7586L8.56258 12.5333L8.19727 12.5344L8.08461 12.1647L7.97195 12.5344L7.60719 12.5333L7.9025 12.7586L7.7882 13.125ZM9.94781 13.125L10.2453 12.897L10.5423 13.125L10.4291 12.7586L10.7227 12.5333L10.3574 12.5344L10.2448 12.1647L10.1327 12.5344L9.76734 12.5333L10.0627 12.7586L9.94781 13.125ZM2.5475 14.0854L2.84445 13.8579L3.14141 14.0854L3.02711 13.7211L3.32187 13.4947H2.95656L2.84391 13.125L2.7318 13.4947H2.36648L2.66234 13.7211L2.5475 14.0854ZM4.51352 14.0854L4.81047 13.8579L5.10742 14.0854L4.99258 13.7211L5.28789 13.4947H4.92203L4.80992 13.125L4.69727 13.4947H4.33195L4.62836 13.7211L4.51352 14.0854ZM6.68242 14.0854L6.97828 13.8579L7.27578 14.0854L7.15875 13.7211L7.45625 13.4947H7.09148L6.97828 13.125L6.86562 13.4947H6.50031L6.79617 13.7211L6.68242 14.0854ZM8.83219 14.0854L9.13078 13.8579L9.42828 14.0854L9.31344 13.7211L9.6082 13.4947H9.24344L9.13023 13.125L9.01813 13.4947H8.65281L8.94867 13.7211L8.83219 14.0854ZM10.9923 14.0854L11.2909 13.8579L11.5884 14.0854L11.473 13.7211L11.7695 13.4947H11.4047L11.2909 13.125L11.1783 13.4947H10.813L11.1088 13.7211L10.9923 14.0854ZM12.2141 13.125L12.511 12.897L12.808 13.125L12.6931 12.7586L12.989 12.5333L12.622 12.5344L12.5105 12.1647L12.3978 12.5344L12.0314 12.5333L12.3289 12.7586L12.2141 13.125ZM1.50133 15.0462L1.79883 14.8204L2.09578 15.0462L1.98039 14.6793L2.27625 14.4539L1.91094 14.455L1.79773 14.0854L1.68617 14.455L1.32031 14.4539L1.61617 14.6793L1.50133 15.0462ZM3.46734 15.0462L3.7643 14.8204L4.0618 15.0462L3.94641 14.6793L4.24172 14.4539L3.8775 14.455L3.76375 14.0854L3.65164 14.455L3.28688 14.4539L3.58164 14.6793L3.46734 15.0462ZM5.6357 15.0462L5.93266 14.8204L6.22961 15.0462L6.11477 14.6793L6.41008 14.4539L6.04312 14.455L5.93211 14.0854L5.81945 14.455L5.45469 14.4539L5.75055 14.6793L5.6357 15.0462ZM7.7882 15.0462L8.08461 14.8204L8.38211 15.0462L8.26891 14.6793L8.56258 14.4539L8.19727 14.455L8.08461 14.0854L7.97195 14.455L7.60719 14.4539L7.9025 14.6793L7.7882 15.0462ZM9.94781 15.0462L10.2453 14.8204L10.5423 15.0462L10.4291 14.6793L10.7227 14.4539L10.3574 14.455L10.2448 14.0854L10.1327 14.455L9.76734 14.4539L10.0627 14.6793L9.94781 15.0462ZM2.5475 16.0071L2.84445 15.7785L3.14141 16.0071L3.02711 15.6396L3.32187 15.4165H2.95656L2.84391 15.0462L2.7318 15.4165H2.36648L2.66234 15.6396L2.5475 16.0071ZM4.51352 16.0071L4.81047 15.7785L5.10742 16.0071L4.99258 15.6396L5.28789 15.4165H4.92203L4.80992 15.0462L4.69727 15.4165H4.33195L4.62836 15.6396L4.51352 16.0071ZM6.68242 16.0071L6.97828 15.7785L7.27578 16.0071L7.15875 15.6396L7.45625 15.4165H7.09148L6.97828 15.0462L6.86562 15.4165H6.50031L6.79617 15.6396L6.68242 16.0071ZM8.83219 16.0071L9.13078 15.7785L9.42828 16.0071L9.31344 15.6396L9.6082 15.4165H9.24344L9.13023 15.0462L9.01813 15.4165H8.65281L8.94867 15.6396L8.83219 16.0071ZM10.9923 16.0071L11.2909 15.7785L11.5884 16.0071L11.473 15.6396L11.7695 15.4165H11.4047L11.2909 15.0462L11.1783 15.4165H10.813L11.1088 15.6396L10.9923 16.0071ZM12.2141 15.0462L12.511 14.8204L12.808 15.0462L12.6931 14.6793L12.989 14.4539L12.622 14.455L12.5105 14.0854L12.3978 14.455L12.0314 14.4539L12.3289 14.6793L12.2141 15.0462Z" fill="white"/>
</svg>
